# xmcd
#
# Track frame offsets:
#	150
#	9987
#	22017
#	35052
#	43325
#	72180
#	81987
#	87982
#	96977
#	109840
#	119930
#	130467
#	138210
#	146190
#	155377
#	164332
#	175342
#	189645
#	201245
#	211427
#	224622
#	234195
#	244942
#	255677
#	265215
#	273750
#
# Disc length: 3772 seconds
#
# Revision: 3
# Processed by: cddbd v1.4PL0 Copyright (c) Steve Scherf et al.
# Submitted via: MusicWizard 6.0.0
#
DISCID=930eba1a
DTITLE=Johnny Cash - The SUN Years  [CD 3/3) - Life Goes On
DYEAR=1995
DGENRE=Country
TTITLE0=Born To Lose
TTITLE1=You're The Nearest Thing To Heaven
TTITLE2=Always Alone (Alternate)
TTITLE3=Always Alone
TTITLE4=The Story Of A Broken Heart (Alternate)
TTITLE5=The Story Of A Broken Heart
TTITLE6=You Tell Me
TTITLE7=Life Goes On
TTITLE8=You Win Again
TTITLE9=I Could Never Be Ashamed Of You
TTITLE10=Cold, Cold Heart
TTITLE11=Hey, Good Lookin'
TTITLE12=I Can't Help It
TTITLE13=Blue Train
TTITLE14=Katy Too
TTITLE15=The Ways Of A Women In Love (Alternate)
TTITLE16=Thanks A Lot (Alternate)
TTITLE17=Fool's Hall Of Fame (Alternate)
TTITLE18=The Ways Of A Woman In Love
TTITLE19=Thanks A Lot
TTITLE20=It's Just About Time
TTITLE21=I Just Thought You'd Like To Know (Alternate)
TTITLE22=I Just Thought You'd Like To Know
TTITLE23=I Forgot To Remember To Forget (Alternate)
TTITLE24=I Forgot To Remember To Forget
TTITLE25=Down The Street To 301
EXTD=(c)1995 Charly Holdings UK\n(p)1984 Charly Records\nCDSUNBox 5/3\n
EXTT0=
EXTT1=
EXTT2=
EXTT3=
EXTT4=
EXTT5=
EXTT6=
EXTT7=
EXTT8=
EXTT9=
EXTT10=
EXTT11=
EXTT12=
EXTT13=
EXTT14=
EXTT15=
EXTT16=
EXTT17=
EXTT18=
EXTT19=
EXTT20=
EXTT21=
EXTT22=
EXTT23=
EXTT24=
EXTT25=
PLAYORDER=
